<?xml version="1.0" encoding="utf-8"?>
<!-- Generator: Adobe Illustrator 27.6.1, SVG Export Plug-In . SVG Version: 6.00 Build 0)  -->
<svg version="1.1" id="Layer_1" xmlns="http://www.w3.org/2000/svg" xmlns:xlink="http://www.w3.org/1999/xlink" x="0px" y="0px"
	 viewBox="0 0 200 60" style="enable-background:new 0 0 200 60;" xml:space="preserve">
<style type="text/css">
	.st0{fill:#E8EAED;}
</style>
<path class="st0" d="M108.5,45.2c0.6,0,1.2-0.1,1.7-0.2l12.1-12.1c0.1-0.6,0.2-1.1,0.2-1.7L108.5,45.2z M122.4,28.3l-16.8,16.8
	c0.5,0,0.9,0.1,1.4,0.1l15.5-15.5C122.5,29.3,122.5,28.8,122.4,28.3z M120.6,22.4c-0.2-0.3-0.3-0.5-0.5-0.8l-5.4,5.4
	c0.1,0.4,0.2,0.8,0.3,1.2l5.6-5.6C120.6,22.5,120.6,22.5,120.6,22.4z M117.3,18.4l-5,5c0.3,0.2,0.5,0.5,0.8,0.7l5-5
	C117.8,18.9,117.6,18.7,117.3,18.4z M113.5,16.2l-5.7,5.7c0.5,0,0.9,0.1,1.3,0.2l5.4-5.4C114.2,16.5,113.9,16.3,113.5,16.2z
	 M99.5,30.2l-6.1,6.1c0.1,0.3,0.3,0.7,0.5,1l5.8-5.8C99.6,31.2,99.5,30.7,99.5,30.2z M100.8,34.9l-5.2,5.2c0.2,0.3,0.5,0.5,0.7,0.8
	l5.1-5.1C101.2,35.5,101,35.2,100.8,34.9z M104,37.7l-5.1,5.1c0.2,0.1,0.4,0.3,0.7,0.4c0.1,0.1,0.2,0.1,0.3,0.2l5.3-5.3
	C104.7,38.1,104.3,37.9,104,37.7z M121.9,25.8l-7.1,7.1c-0.2,0.6-0.4,1.2-0.7,1.7c-0.7,1.3-1.7,2.2-2.8,2.9
	c-0.6,0.3-1.2,0.6-1.8,0.7l-6.5,6.5c0.4,0.1,0.8,0.2,1.3,0.3l18-18C122.2,26.6,122.1,26.2,121.9,25.8z M107.4,38.5
	c-0.4,0-0.7,0-1.1-0.1l-5.5,5.5c0.3,0.2,0.7,0.3,1.1,0.4l5.9-5.9C107.6,38.5,107.5,38.5,107.4,38.5z M102.2,36.6l-5,5
	c0.3,0.2,0.5,0.5,0.8,0.7l5-5C102.7,37,102.4,36.8,102.2,36.6z M99.9,32.8l-5.5,5.5c0.2,0.3,0.4,0.6,0.6,0.9l5.3-5.3
	C100.1,33.6,100,33.2,99.9,32.8z M92.7,34.1c0.1,0.4,0.2,0.8,0.3,1.2l6.6-6.6c0.1-0.8,0.3-1.5,0.6-2.1L92.7,34.1z M111.3,15.4l-7,7
	c0.7-0.3,1.3-0.5,2.1-0.5l6.1-6.1C112.1,15.6,111.7,15.5,111.3,15.4z M105.6,15.1L92.3,28.4c-0.1,0.5-0.1,1.1-0.1,1.6L107.3,15
	C106.7,15,106.2,15,105.6,15.1z M94.6,21.6l4.2-4.2C97.1,18.5,95.7,19.9,94.6,21.6z M101.8,15.9l-8.6,8.6c-0.3,0.7-0.5,1.4-0.6,2.1
	l11.4-11.4C103.2,15.5,102.5,15.7,101.8,15.9z M108.7,15L92.3,31.5c0,0.5,0.1,0.9,0.2,1.3L110,15.2C109.6,15.1,109.2,15.1,108.7,15z
	 M115.5,17.2l-5.2,5.2c0.3,0.1,0.6,0.3,1,0.5c0,0,0.1,0,0.1,0l5.1-5.1C116.1,17.6,115.8,17.4,115.5,17.2z M118.8,19.9l-5.1,5.1
	c0.2,0.2,0.3,0.4,0.4,0.7c0,0.1,0.1,0.2,0.1,0.3l5.2-5.2C119.3,20.5,119.1,20.2,118.8,19.9z M121.6,24.6c-0.1-0.4-0.3-0.7-0.4-1.1
	l-6,6c0,0.2,0,0.4,0,0.6c0,0.3,0,0.6,0,0.9L121.6,24.6z M112.1,44.6c0.9-0.3,1.8-0.6,2.7-1.1l5.9-5.9c0.5-0.9,0.8-1.8,1.1-2.7
	L112.1,44.6z M48.6,42.6c-1.9-1.8-2.9-4.1-2.9-6.9c0-1.9,0.5-3.6,1.5-5c1-1.5,2.4-2.6,4.1-3.3c1.7-0.8,3.7-1.2,5.8-1.2
	c2.4,0,4.6,0.3,6.4,0.9c0.6,0.2,1.1-0.2,1.1-0.8v0c0-1.6-0.6-2.8-1.8-3.8c-1.2-1-2.7-1.5-4.7-1.5c-1.3,0-2.6,0.3-3.9,0.9
	c-0.5,0.3-1,0.6-1.5,0.9c-1.1,0.8-2.6,0.8-3.6-0.1l0,0c-1.6-1.2-1.5-3.6,0.1-4.8c0.8-0.6,1.6-1,2.5-1.5c2.1-1,4.4-1.5,6.8-1.5
	c4.4,0,7.7,1,9.9,3c2.3,2,3.4,4.9,3.4,8.8v14.6c0,1.6-1.3,2.9-2.9,2.9h-1.4c-1.6,0-2.9-1.3-2.9-2.9l0,0h-0.4c-0.9,1.1-2,2-3.4,2.7
	s-3,1.1-4.8,1.1C53,45.3,50.6,44.4,48.6,42.6z M62.8,37.5c1.1-1.2,1.7-2.6,1.8-4.2c0-0.4-0.2-0.7-0.5-0.8c-1.7-0.7-3.5-1.1-5.4-1.1
	c-3.8,0-5.7,1.4-5.7,4.2c0,1.2,0.4,2.1,1.2,2.8c0.8,0.7,2,1.1,3.5,1.1C59.9,39.6,61.6,38.9,62.8,37.5z M79.1,19.5v21.2
	c0,2,1.6,3.7,3.7,3.7h0c2,0,3.7-1.6,3.7-3.7V19.5c0-2-1.6-3.7-3.7-3.7h0C80.7,15.9,79.1,17.5,79.1,19.5z M131,15.9L131,15.9
	c1.9,0,3.4,1.5,3.4,3.4v0.1h0.4c0.9-1.4,2.1-2.5,3.6-3.3c1.6-0.8,3.3-1.2,5.1-1.2c3.4,0,6,1,7.8,3.1c1.8,2.1,2.7,4.9,2.7,8.5v14
	c0,2-1.6,3.7-3.7,3.7h0c-2,0-3.7-1.6-3.7-3.7V27.6c0-1.8-0.5-3.2-1.4-4.2c-0.9-1-2.2-1.5-3.9-1.5c-2,0-3.6,0.8-4.8,2.3
	c-1.2,1.5-1.8,3.4-1.8,5.7v10.9c0,2-1.6,3.7-3.7,3.7l0,0c-2,0-3.7-1.6-3.7-3.7V19.3C127.5,17.4,129.1,15.9,131,15.9z"/>
</svg>
