<?xml version="1.0" encoding="utf-8"?>
<!-- Generator: Adobe Illustrator 27.6.1, SVG Export Plug-In . SVG Version: 6.00 Build 0)  -->
<svg version="1.1" id="Layer_1" xmlns="http://www.w3.org/2000/svg" xmlns:xlink="http://www.w3.org/1999/xlink" x="0px" y="0px"
	 viewBox="0 0 32 32" style="enable-background:new 0 0 32 32;" xml:space="preserve">
<style type="text/css">
	.st0{fill:#FBBC04;}
	.st1{fill:url(#SVGID_1_);}
	.st2{fill:url(#SVGID_00000008131273676308013200000001277830635056831893_);}
	.st3{fill:url(#SVGID_00000129897403137931564020000000886191890069034886_);}
	.st4{fill:#F1F3F4;}
	.st5{fill:#5E89CC;}
</style>
<path class="st0" d="M16,24c6.6,0,12-5.4,12-12S22.6,0,16,0S4,5.4,4,12S9.4,24,16,24z"/>
<linearGradient id="SVGID_1_" gradientUnits="userSpaceOnUse" x1="0.5365" y1="34.6555" x2="36.0498" y2="5.5909" gradientTransform="matrix(1 0 0 -1 0 34)">
	<stop  offset="0" style="stop-color:#FCD35C"/>
	<stop  offset="1" style="stop-color:#FBBC04"/>
</linearGradient>
<path class="st1" d="M16,24c6.6,0,12-5.4,12-12S22.6,0,16,0S4,5.4,4,12S9.4,24,16,24z"/>
<linearGradient id="SVGID_00000062163396297668077400000018331233803973112226_" gradientUnits="userSpaceOnUse" x1="14.2333" y1="17.0151" x2="28.1845" y2="-0.5901" gradientTransform="matrix(1 0 0 -1 0 34)">
	<stop  offset="0" style="stop-color:#F1F3F4"/>
	<stop  offset="1" style="stop-color:#DEDFDF"/>
</linearGradient>
<path style="fill:url(#SVGID_00000062163396297668077400000018331233803973112226_);" d="M19,32c5,0,9-4,9-9s-4-9-9-9s-9,4-9,9
	S14,32,19,32z"/>
<linearGradient id="SVGID_00000077317410119348703910000008252408427719162759_" gradientUnits="userSpaceOnUse" x1="20.673" y1="8.5812" x2="12.814" y2="25.461" gradientTransform="matrix(1 0 0 -1 0 34)">
	<stop  offset="0" style="stop-color:#E4E5E5"/>
	<stop  offset="1" style="stop-color:#FCD35C"/>
</linearGradient>
<path style="fill:url(#SVGID_00000077317410119348703910000008252408427719162759_);" d="M10,22.4c0.3-4.7,4.2-8.4,9-8.4
	c3.1,0,5.8,1.6,7.4,3.9c-2.1,3.6-6,6.1-10.4,6.1C13.8,24,11.8,23.4,10,22.4z"/>
<path class="st4" d="M19,32c0-4.1-3.4-7.5-7.5-7.5S4,27.9,4,32C4,32,19,32,19,32z"/>
<path class="st5" d="M25.7,26.7l1.8-1.8l1.8,1.8c1,1,1,2.6,0,3.5c-1,1-2.6,1-3.5,0C24.8,29.3,24.8,27.7,25.7,26.7z"/>
<path class="st5" d="M17.8,18.8l1.8-1.8l1.8,1.8c1,1,1,2.6,0,3.5c-1,1-2.6,1-3.5,0C16.8,21.3,16.8,19.7,17.8,18.8z"/>
</svg>
