<?xml version="1.0" encoding="utf-8"?>
<!-- Generator: Adobe Illustrator 27.6.1, SVG Export Plug-In . SVG Version: 6.00 Build 0)  -->
<svg version="1.1" id="Layer_1" xmlns="http://www.w3.org/2000/svg" xmlns:xlink="http://www.w3.org/1999/xlink" x="0px" y="0px"
	 viewBox="0 0 32 32" style="enable-background:new 0 0 32 32;" xml:space="preserve">
<style type="text/css">
	.st0{fill:#F1F3F4;}
	.st1{fill:url(#SVGID_1_);}
	.st2{fill:url(#SVGID_00000152976102900649566470000008556356969532078782_);}
	.st3{fill:#5E89CC;}
</style>
<path class="st0" d="M20,24c6.6,0,12-5.4,12-12S26.6,0,20,0S8,5.4,8,12S13.4,24,20,24z"/>
<linearGradient id="SVGID_1_" gradientUnits="userSpaceOnUse" x1="8" y1="34" x2="31.5865" y2="10.4135" gradientTransform="matrix(1 0 0 -1 0 34)">
	<stop  offset="0" style="stop-color:#F1F3F4"/>
	<stop  offset="1" style="stop-color:#DADCE0"/>
</linearGradient>
<path class="st1" d="M20,24c6.6,0,12-5.4,12-12S26.6,0,20,0S8,5.4,8,12S13.4,24,20,24z"/>
<linearGradient id="SVGID_00000122694687269305415650000015636693533613191044_" gradientUnits="userSpaceOnUse" x1="20" y1="15" x2="10" y2="15" gradientTransform="matrix(1 0 0 -1 0 34)">
	<stop  offset="0" style="stop-color:#FFFFFF"/>
	<stop  offset="1" style="stop-color:#F1F3F4"/>
</linearGradient>
<path style="fill:url(#SVGID_00000122694687269305415650000015636693533613191044_);" d="M20,24c0-5.5-4.5-10-10-10
	C4.5,14,0,18.5,0,24C0,24,20,24,20,24z"/>
<path class="st3" d="M17.7,27.7l1.8-1.8l1.8,1.8c1,1,1,2.6,0,3.5c-1,1-2.6,1-3.5,0C16.8,30.3,16.8,28.7,17.7,27.7z M25.7,27.7
	l1.8-1.8l1.8,1.8c1,1,1,2.6,0,3.5c-1,1-2.6,1-3.5,0C24.8,30.3,24.8,28.7,25.7,27.7z M17.8,10.8L19.5,9l1.8,1.8c1,1,1,2.6,0,3.5
	c-1,1-2.6,1-3.5,0C16.8,13.3,16.8,11.7,17.8,10.8z M25.8,10.8L27.5,9l1.8,1.8c1,1,1,2.6,0,3.5c-1,1-2.6,1-3.5,0
	C24.8,13.3,24.8,11.7,25.8,10.8z M17.8,19.8l1.8-1.8l1.8,1.8c1,1,1,2.6,0,3.5c-1,1-2.6,1-3.5,0C16.8,22.3,16.8,20.7,17.8,19.8z
	 M25.8,19.8l1.8-1.8l1.8,1.8c1,1,1,2.6,0,3.5c-1,1-2.6,1-3.5,0C24.8,22.3,24.8,20.7,25.8,19.8z"/>
</svg>
