<?xml version="1.0" encoding="utf-8"?>
<!-- Generator: Adobe Illustrator 27.6.1, SVG Export Plug-In . SVG Version: 6.00 Build 0)  -->
<svg version="1.1" id="Layer_1" xmlns="http://www.w3.org/2000/svg" xmlns:xlink="http://www.w3.org/1999/xlink" x="0px" y="0px"
	 viewBox="0 0 32 32" style="enable-background:new 0 0 32 32;" xml:space="preserve">
<style type="text/css">
	.st0{fill:#F1F3F4;}
	.st1{fill:url(#SVGID_1_);}
	.st2{fill:url(#SVGID_00000120555770612139572180000009657282712883592863_);}
</style>
<path class="st0" d="M13.7,16.3c4.3,0,7.9-3.6,7.9-8s-3.5-8-7.9-8s-7.9,3.6-7.9,8S9.4,16.3,13.7,16.3z"/>
<linearGradient id="SVGID_1_" gradientUnits="userSpaceOnUse" x1="5.588" y1="152.288" x2="21.3123" y2="168.0122" gradientTransform="matrix(1 0 0 1 0 -152)">
	<stop  offset="0" style="stop-color:#F1F3F4"/>
	<stop  offset="1" style="stop-color:#DADCE0"/>
</linearGradient>
<path class="st1" d="M13.6,16.3c4.4,0,8-3.6,8-8s-3.6-8-8-8s-8,3.6-8,8S9.2,16.3,13.6,16.3z"/>
<path class="st0" d="M13.6,16.3c0-3.7-2.9-6.7-6.5-6.7s-6.5,3-6.5,6.7H13.6z"/>
<linearGradient id="SVGID_00000127009132956873220550000001393447010462197405_" gradientUnits="userSpaceOnUse" x1="2.2998" y1="22.7998" x2="29.5996" y2="22.7998">
	<stop  offset="0" style="stop-color:#FCD35C"/>
	<stop  offset="1" style="stop-color:#FBBC04"/>
</linearGradient>
<path style="fill:url(#SVGID_00000127009132956873220550000001393447010462197405_);" d="M26,31.3c-0.6,0-1-0.4-1-1s0.4-1,1-1
	c0.9,0,1.6-0.7,1.6-1.6c0-0.9-0.7-1.6-1.6-1.6h-9.9c0.2,0.5,0.3,1,0.3,1.6c0,2.1-1.5,3.6-3.6,3.6c-0.6,0-1-0.4-1-1s0.4-1,1-1
	c0.9,0,1.6-0.7,1.6-1.6c0-0.9-0.7-1.6-1.6-1.6h-1.5c-0.6,0-1-0.4-1-1s0.4-1,1-1h1.5c0.1,0,0.1,0,0.2,0h13c2.1,0,3.6,1.5,3.6,3.6
	C29.6,29.8,28.1,31.3,26,31.3z M22.5,21.5H7.3c-0.6,0-1-0.4-1-1s0.4-1,1-1h15.2c0.9,0,1.6-0.7,1.6-1.6c0-0.9-0.7-1.6-1.6-1.6
	c-0.6,0-1-0.4-1-1s0.4-1,1-1c2.1,0,3.6,1.5,3.6,3.6C26.1,20,24.6,21.5,22.5,21.5z M3.3,19.5c-0.6,0-1,0.4-1,1s0.4,1,1,1s1-0.4,1-1
	S3.9,19.5,3.3,19.5z M3.3,24.1c-0.6,0-1,0.4-1,1s0.4,1,1,1s1-0.4,1-1S3.9,24.1,3.3,24.1z M7.3,24.1c-0.6,0-1,0.4-1,1s0.4,1,1,1
	s1-0.4,1-1S7.9,24.1,7.3,24.1z"/>
</svg>
