<?xml version="1.0" encoding="utf-8"?>
<!-- Generator: Adobe Illustrator 27.6.1, SVG Export Plug-In . SVG Version: 6.00 Build 0)  -->
<svg version="1.1" id="Layer_1" xmlns="http://www.w3.org/2000/svg" xmlns:xlink="http://www.w3.org/1999/xlink" x="0px" y="0px"
	 viewBox="0 0 32 32" style="enable-background:new 0 0 32 32;" xml:space="preserve">
<style type="text/css">
	.st0{stroke:#CDD0D5;stroke-width:2;stroke-linecap:round;}
	.st1{fill:#F1F3F4;}
	.st2{fill:url(#SVGID_1_);}
</style>
<path class="st0" d="M1.9,24h18.8"/>
<path class="st0" d="M24.4,24h5.6"/>
<path class="st0" d="M1.9,20h5.6"/>
<path class="st0" d="M1.9,28h5.6"/>
<path class="st0" d="M11.3,20h18.8"/>
<path class="st0" d="M11.3,28h18.8"/>
<path class="st1" d="M13.1,16c4.3,0,7.9-3.6,7.9-8s-3.5-8-7.9-8S5.2,3.6,5.2,8S8.8,16,13.1,16z"/>
<linearGradient id="SVGID_1_" gradientUnits="userSpaceOnUse" x1="5" y1="34" x2="20.7243" y2="18.2757" gradientTransform="matrix(1 0 0 -1 0 34)">
	<stop  offset="0" style="stop-color:#F1F3F4"/>
	<stop  offset="1" style="stop-color:#DADCE0"/>
</linearGradient>
<path class="st2" d="M13,16c4.4,0,8-3.6,8-8s-3.6-8-8-8S5,3.6,5,8S8.6,16,13,16z"/>
<path class="st1" d="M13,16c0-3.7-2.9-6.7-6.5-6.7S0,12.3,0,16C0,16,13,16,13,16z"/>
</svg>
