<?xml version="1.0" encoding="utf-8"?>
<!-- Generator: Adobe Illustrator 27.6.1, SVG Export Plug-In . SVG Version: 6.00 Build 0)  -->
<svg version="1.1" id="Layer_1" xmlns="http://www.w3.org/2000/svg" xmlns:xlink="http://www.w3.org/1999/xlink" x="0px" y="0px"
	 viewBox="0 0 32 32" style="enable-background:new 0 0 32 32;" xml:space="preserve">
<style type="text/css">
	.st0{fill:url(#SVGID_1_);}
	.st1{fill:#F1F3F4;}
	.st2{fill:url(#SVGID_00000108309926290913109720000014797798859121890717_);}
</style>
<linearGradient id="SVGID_1_" gradientUnits="userSpaceOnUse" x1="2" y1="24" x2="31" y2="24">
	<stop  offset="0" style="stop-color:#FCD35C"/>
	<stop  offset="1" style="stop-color:#FBBC04"/>
</linearGradient>
<path class="st0" d="M31,28c0-0.6-0.4-1-1-1H3c-0.6,0-1,0.4-1,1s0.4,1,1,1h27C30.6,29,31,28.6,31,28z M3,21L3,21c0.5,0,1-0.5,1-1
	l0,0c0-0.5-0.5-1-1-1l0,0c-0.6,0-1,0.5-1,1S2.4,21,3,21z M3,25L3,25c0.5,0,1-0.5,1-1l0,0c0-0.5-0.5-1-1-1l0,0c-0.6,0-1,0.5-1,1
	S2.4,25,3,25z M9.8,21L9.8,21c0.5,0,1-0.5,1-1l0,0c0-0.5-0.5-1-1-1l0,0c-0.5,0-1,0.5-1,1S9.2,21,9.8,21z M16.5,25L16.5,25
	c0.5,0,1-0.5,1-1l0,0c0-0.5-0.5-1-1-1l0,0c-0.5,0-1,0.5-1,1S16,25,16.5,25z M9.8,25L9.8,25c0.5,0,1-0.5,1-1l0,0c0-0.5-0.5-1-1-1l0,0
	c-0.5,0-1,0.5-1,1S9.2,25,9.8,25z M16.5,21L16.5,21c0.5,0,1-0.5,1-1l0,0c0-0.5-0.5-1-1-1l0,0c-0.5,0-1,0.5-1,1S16,21,16.5,21z
	 M23.2,21L23.2,21c0.5,0,1-0.5,1-1l0,0c0-0.5-0.5-1-1-1l0,0c-0.5,0-1,0.5-1,1S22.8,21,23.2,21z M30,24.8L30,24.8c0.5,0,1-0.5,1-1
	l0,0c0-0.5-0.5-1-1-1l0,0c-0.5,0-1,0.5-1,1S29.5,24.8,30,24.8z M23.2,24.8L23.2,24.8c0.5,0,1-0.5,1-1l0,0c0-0.5-0.5-1-1-1l0,0
	c-0.6,0-1,0.5-1,1S22.6,24.8,23.2,24.8z M30,21L30,21c0.5,0,1-0.5,1-1l0,0c0-0.5-0.5-1-1-1l0,0c-0.5,0-1,0.5-1,1S29.5,21,30,21z"/>
<path class="st1" d="M13.1,16c4.3,0,7.9-3.6,7.9-8s-3.5-8-7.9-8S5.2,3.6,5.2,8S8.8,16,13.1,16z"/>
<linearGradient id="SVGID_00000008141701272591497370000004343715872003088035_" gradientUnits="userSpaceOnUse" x1="5" y1="76" x2="20.7243" y2="91.7243" gradientTransform="matrix(1 0 0 1 0 -76)">
	<stop  offset="0" style="stop-color:#F1F3F4"/>
	<stop  offset="1" style="stop-color:#DADCE0"/>
</linearGradient>
<path style="fill:url(#SVGID_00000008141701272591497370000004343715872003088035_);" d="M13,16c4.4,0,8-3.6,8-8s-3.6-8-8-8
	S5,3.6,5,8S8.6,16,13,16z"/>
<path class="st1" d="M13,16c0-3.7-2.9-6.7-6.5-6.7S0,12.3,0,16H13z"/>
</svg>
