<?xml version="1.0" encoding="utf-8"?>
<!-- Generator: Adobe Illustrator 27.6.1, SVG Export Plug-In . SVG Version: 6.00 Build 0)  -->
<svg version="1.1" id="Layer_1" xmlns="http://www.w3.org/2000/svg" xmlns:xlink="http://www.w3.org/1999/xlink" x="0px" y="0px"
	 viewBox="0 0 32 32" style="enable-background:new 0 0 32 32;" xml:space="preserve">
<style type="text/css">
	.st0{fill:#F1F3F4;}
	.st1{fill:url(#SVGID_1_);}
	.st2{fill:#5E89CC;}
	.st3{fill:#75ACFF;}
</style>
<path class="st0" d="M32,12c0,1.7-0.3,3.2-1,4.7c-0.7,1.5-1.6,2.9-2.8,4c-0.9,0.8-1.9,1.5-3,2c-0.9,0.4-1.9,0.8-2.9,1
	C21.6,23.9,20.8,24,20,24c-0.2,0-0.4,0-0.6,0c-1,0-2-0.2-2.9-0.5c-4.2-1.3-7.5-4.9-8.3-9.3C8.1,13.5,8,12.7,8,12C8,5.4,13.4,0,20,0
	S32,5.4,32,12z"/>
<linearGradient id="SVGID_1_" gradientUnits="userSpaceOnUse" x1="7.9986" y1="1.991543e-04" x2="31.5892" y2="23.5909">
	<stop  offset="0" style="stop-color:#F1F3F4"/>
	<stop  offset="1" style="stop-color:#DADCE0"/>
</linearGradient>
<path class="st1" d="M32,12c0,1.7-0.3,3.2-1,4.7c-0.7,1.5-1.6,2.9-2.8,4c-0.9,0.8-1.9,1.5-3,2c-0.9,0.4-1.9,0.8-2.9,1
	C21.6,23.9,20.8,24,20,24c-0.2,0-0.4,0-0.6,0c-1,0-2-0.2-2.9-0.5c-4.2-1.3-7.5-4.9-8.3-9.3C8.1,13.5,8,12.7,8,12C8,5.4,13.4,0,20,0
	S32,5.4,32,12z"/>
<path class="st0" d="M20,24H0c0-4.9,3.5-9,8.2-9.8C8.8,14.1,9.4,14,10,14c2.6,0,5,1,6.8,2.7c1.2,1.1,2,2.4,2.6,3.9
	C19.8,21.7,20,22.8,20,24z"/>
<rect x="16.5" y="24" class="st2" width="2.9" height="7.3"/>
<path class="st2" d="M25.2,22.8v8.5h-2.9v-7.5C23.4,23.6,24.3,23.2,25.2,22.8z"/>
<path class="st3" d="M25.2,16.7v6.1c-0.9,0.4-1.9,0.8-2.9,1v-7.1H25.2z"/>
<path class="st2" d="M31.1,16.7v14.6h-2.9V20.8C29.4,19.6,30.4,18.2,31.1,16.7L31.1,16.7z"/>
<path class="st3" d="M31,16.7c-0.7,1.5-1.6,2.9-2.8,4v-4H31z"/>
<rect x="16.5" y="16.7" class="st3" width="2.9" height="7.3"/>
</svg>
