<?xml version="1.0" encoding="utf-8"?>
<!-- Generator: Adobe Illustrator 27.6.1, SVG Export Plug-In . SVG Version: 6.00 Build 0)  -->
<svg version="1.1" id="Layer_1" xmlns="http://www.w3.org/2000/svg" xmlns:xlink="http://www.w3.org/1999/xlink" x="0px" y="0px"
	 viewBox="0 0 32 32" style="enable-background:new 0 0 32 32;" xml:space="preserve">
<style type="text/css">
	.st0{fill:#5E89CC;}
	.st1{fill:#F1F3F4;}
	.st2{fill:url(#SVGID_1_);}
	.st3{fill:url(#SVGID_00000083065928677150677820000013265922311225978520_);}
	.st4{fill:#75ACFF;}
</style>
<g>
	<path class="st0" d="M24,31.7c-4.3,0-7.7-3.4-7.7-7.7s3.4-7.7,7.7-7.7s7.7,3.4,7.7,7.7S28.3,31.7,24,31.7z M24,18.9
		c-2.9,0-5.1,2.2-5.1,5.1s2.2,5.1,5.1,5.1s5.1-2.2,5.1-5.1S26.9,18.9,24,18.9z"/>
	<path class="st1" d="M32,12c0,2.6-0.8,5-2.2,6.9c-0.5,0.7-1.1,1.4-1.7,2c-2.1,1.9-5,3.1-8.1,3.1c-0.4,0-0.8,0-1.1,0
		c-0.9-0.1-1.7-0.3-2.5-0.5c-4.2-1.3-7.3-4.9-8.2-9.3C8.1,13.5,8,12.7,8,12C8,5.4,13.4,0,20,0S32,5.4,32,12z"/>
	<linearGradient id="SVGID_1_" gradientUnits="userSpaceOnUse" x1="8" y1="-1.071656e-03" x2="31.5903" y2="23.5892">
		<stop  offset="0" style="stop-color:#F1F3F4"/>
		<stop  offset="1" style="stop-color:#DADCE0"/>
	</linearGradient>
	<path class="st2" d="M32,12c0,2.6-0.8,5-2.2,6.9c-0.5,0.7-1.1,1.4-1.7,2c-2.1,1.9-5,3.1-8.1,3.1c-0.4,0-0.8,0-1.1,0
		c-0.9-0.1-1.7-0.3-2.5-0.5c-4.2-1.3-7.3-4.9-8.2-9.3C8.1,13.5,8,12.7,8,12C8,5.4,13.4,0,20,0S32,5.4,32,12z"/>
	
		<linearGradient id="SVGID_00000146460135814126895770000004948871173538239878_" gradientUnits="userSpaceOnUse" x1="20" y1="19" x2="10" y2="19">
		<stop  offset="0" style="stop-color:#FFFFFF"/>
		<stop  offset="1" style="stop-color:#F1F3F4"/>
	</linearGradient>
	<path style="fill:url(#SVGID_00000146460135814126895770000004948871173538239878_);" d="M20,24H0c0-4.9,3.5-9,8.2-9.8
		C8.8,14.1,9.4,14,10,14c3.5,0,6.7,1.9,8.5,4.7c0.5,0.8,0.9,1.7,1.2,2.7C19.9,22.2,20,23.1,20,24z"/>
	<path class="st4" d="M24,16.3c-2.2,0-4.2,0.9-5.5,2.3c-1.2,1.2-2,2.9-2.1,4.8c0,0.2,0,0.4,0,0.6h2.6v0c0-1,0.3-1.9,0.7-2.6
		c0.9-1.5,2.5-2.4,4.4-2.4c1.7,0,3.1,0.8,4.1,2c0.6-0.6,1.2-1.2,1.7-2C28.4,17.3,26.3,16.3,24,16.3z"/>
</g>
</svg>
