<?xml version="1.0" encoding="utf-8"?>
<!-- Generator: Adobe Illustrator 27.6.1, SVG Export Plug-In . SVG Version: 6.00 Build 0)  -->
<svg version="1.1" id="Layer_1" xmlns="http://www.w3.org/2000/svg" xmlns:xlink="http://www.w3.org/1999/xlink" x="0px" y="0px"
	 viewBox="0 0 32 32" style="enable-background:new 0 0 32 32;" xml:space="preserve">
<style type="text/css">
	.st0{fill:#FBBC04;}
	.st1{fill:url(#SVGID_1_);}
	.st2{fill:url(#SVGID_00000125591072407689887850000017569247451772897188_);}
	.st3{fill:url(#SVGID_00000097491528125218035430000015620582084312773296_);}
	.st4{fill:#F1F3F4;}
	.st5{stroke:#5E89CC;stroke-linecap:square;}
</style>
<path class="st0" d="M16,24c6.6,0,12-5.4,12-12S22.6,0,16,0S4,5.4,4,12S9.4,24,16,24z"/>
<linearGradient id="SVGID_1_" gradientUnits="userSpaceOnUse" x1="0.5365" y1="75.3445" x2="36.0498" y2="104.4091" gradientTransform="matrix(1 0 0 1 0 -76)">
	<stop  offset="0" style="stop-color:#FCD35C"/>
	<stop  offset="1" style="stop-color:#FBBC04"/>
</linearGradient>
<path class="st1" d="M16,24c6.6,0,12-5.4,12-12S22.6,0,16,0S4,5.4,4,12S9.4,24,16,24z"/>
<linearGradient id="SVGID_00000112621099994083435360000010955115881296457120_" gradientUnits="userSpaceOnUse" x1="14.2333" y1="92.9849" x2="28.1845" y2="110.5901" gradientTransform="matrix(1 0 0 1 0 -76)">
	<stop  offset="0" style="stop-color:#F1F3F4"/>
	<stop  offset="1" style="stop-color:#DEDFDF"/>
</linearGradient>
<path style="fill:url(#SVGID_00000112621099994083435360000010955115881296457120_);" d="M19,32c5,0,9-4,9-9s-4-9-9-9s-9,4-9,9
	S14,32,19,32z"/>
<linearGradient id="SVGID_00000060728551001446591630000000825242748249439874_" gradientUnits="userSpaceOnUse" x1="20.6566" y1="101.4264" x2="12.7976" y2="84.5466" gradientTransform="matrix(1 0 0 1 0 -76)">
	<stop  offset="0" style="stop-color:#E4E5E5"/>
	<stop  offset="1" style="stop-color:#FCD35C"/>
</linearGradient>
<path style="fill:url(#SVGID_00000060728551001446591630000000825242748249439874_);" d="M10,22.4c0.3-4.7,4.2-8.4,9-8.4
	c3.1,0,5.8,1.6,7.4,3.9c-2.1,3.6-6,6.1-10.4,6.1C13.8,24,11.8,23.4,10,22.4z"/>
<path class="st4" d="M19,32c0-4.1-3.4-7.5-7.5-7.5S4,27.9,4,32H19z"/>
<path class="st5" d="M27.7,25.6v5.1"/>
<path class="st5" d="M25.5,26.9l4.5,2.6"/>
<path class="st5" d="M29.9,26.9l-4.5,2.6"/>
<path class="st5" d="M19.7,17.6v5.1"/>
<path class="st5" d="M17.5,18.9l4.5,2.6"/>
<path class="st5" d="M21.9,18.9l-4.5,2.6"/>
</svg>
