<?xml version="1.0" encoding="utf-8"?>
<!-- Generator: Adobe Illustrator 27.6.1, SVG Export Plug-In . SVG Version: 6.00 Build 0)  -->
<svg version="1.1" id="Layer_1" xmlns="http://www.w3.org/2000/svg" xmlns:xlink="http://www.w3.org/1999/xlink" x="0px" y="0px"
	 viewBox="0 0 32 32" style="enable-background:new 0 0 32 32;" xml:space="preserve">
<style type="text/css">
	.st0{fill:#F1F3F4;}
	.st1{fill:url(#SVGID_1_);}
	.st2{fill:url(#SVGID_00000137114148651338508890000006597637588654349979_);}
	.st3{fill:#FBBC04;}
	.st4{fill:#5E89CC;}
	.st5{fill:none;stroke:#5E89CC;}
</style>
<g>
	<path class="st0" d="M20,24c6.6,0,12-5.4,12-12S26.6,0,20,0S8,5.4,8,12S13.4,24,20,24z"/>
	
		<linearGradient id="SVGID_1_" gradientUnits="userSpaceOnUse" x1="13.7041" y1="30.0639" x2="32.3057" y2="6.2387" gradientTransform="matrix(1 0 0 -1 0 34)">
		<stop  offset="0" style="stop-color:#F1F3F4"/>
		<stop  offset="1" style="stop-color:#DEDFDF"/>
	</linearGradient>
	<path class="st1" d="M20,24c6.6,0,12-5.4,12-12S26.6,0,20,0S8,5.4,8,12S13.4,24,20,24z"/>
	
		<linearGradient id="SVGID_00000157276599228692042080000010915671942881991323_" gradientUnits="userSpaceOnUse" x1="20" y1="15" x2="10" y2="15" gradientTransform="matrix(1 0 0 -1 0 34)">
		<stop  offset="0" style="stop-color:#FFFFFF"/>
		<stop  offset="1" style="stop-color:#F1F3F4"/>
	</linearGradient>
	<path style="fill:url(#SVGID_00000157276599228692042080000010915671942881991323_);" d="M20,24c0-5.5-4.5-10-10-10
		C4.5,14,0,18.5,0,24C0,24,20,24,20,24z"/>
	<path class="st3" d="M17.2,17.1L14,24h2.9l-0.4,6.1l7.2-8.1h-2.6l2.6-4.9H17.2z"/>
	<path class="st4" d="M25.8,10.8L27.5,9l1.8,1.8c1,1,1,2.6,0,3.5c-1,1-2.6,1-3.5,0C24.8,13.3,24.8,11.7,25.8,10.8z"/>
</g>
<path class="st5" d="M27.5,31.5c1.4,0,2.5-1.1,2.5-2.5s-1.1-2.5-2.5-2.5S25,27.6,25,29S26.1,31.5,27.5,31.5z"/>
</svg>
