<?xml version="1.0" encoding="utf-8"?>
<!-- Generator: Adobe Illustrator 27.6.1, SVG Export Plug-In . SVG Version: 6.00 Build 0)  -->
<svg version="1.1" id="Layer_1" xmlns="http://www.w3.org/2000/svg" xmlns:xlink="http://www.w3.org/1999/xlink" x="0px" y="0px"
	 viewBox="0 0 32 32" style="enable-background:new 0 0 32 32;" xml:space="preserve">
<style type="text/css">
	.st0{fill:url(#SVGID_1_);}
	.st1{fill:#F1F3F4;}
	.st2{fill:url(#SVGID_00000180336148167445738110000010139897584092730813_);}
</style>
<linearGradient id="SVGID_1_" gradientUnits="userSpaceOnUse" x1="1" y1="24" x2="31" y2="24">
	<stop  offset="0" style="stop-color:#FCD35C"/>
	<stop  offset="1" style="stop-color:#FBBC04"/>
</linearGradient>
<path class="st0" d="M30,25h-6c-0.6,0-1-0.4-1-1s0.4-1,1-1h6c0.6,0,1,0.4,1,1S30.6,25,30,25z M9.7,20c0-0.6-0.4-1-1-1h-6
	c-0.6,0-1,0.4-1,1s0.4,1,1,1h6C9.2,21,9.7,20.6,9.7,20z M10,28c0-0.6-0.4-1-1-1H3c-0.6,0-1,0.4-1,1s0.4,1,1,1h6
	C9.6,29,10,28.6,10,28z M30,21L30,21c0.5,0,1-0.5,1-1l0,0c0-0.5-0.5-1-1-1l0,0c-0.5,0-1,0.5-1,1S29.5,21,30,21z M22,21L22,21
	c0.5,0,1-0.5,1-1l0,0c0-0.5-0.5-1-1-1l0,0c-0.5,0-1,0.5-1,1S21.5,21,22,21z M14,21L14,21c0.5,0,1-0.5,1-1l0,0c0-0.5-0.5-1-1-1l0,0
	c-0.6,0-1,0.5-1,1S13.4,21,14,21z M18,25L18,25c0.5,0,1-0.5,1-1l0,0c0-0.5-0.5-1-1-1l0,0c-0.5,0-1,0.5-1,1S17.5,25,18,25z M10,25
	L10,25c0.5,0,1-0.5,1-1l0,0c0-0.5-0.5-1-1-1l0,0c-0.5,0-1,0.5-1,1S9.5,25,10,25z M2,25L2,25c0.5,0,1-0.5,1-1l0,0c0-0.5-0.5-1-1-1
	l0,0c-0.6,0-1,0.5-1,1S1.4,25,2,25z M30,29L30,29c0.5,0,1-0.5,1-1l0,0c0-0.5-0.5-1-1-1l0,0c-0.5,0-1,0.5-1,1S29.5,29,30,29z M22,29
	L22,29c0.5,0,1-0.5,1-1l0,0c0-0.5-0.5-1-1-1l0,0c-0.5,0-1,0.5-1,1S21.5,29,22,29z M14,29L14,29c0.5,0,1-0.5,1-1l0,0c0-0.5-0.5-1-1-1
	l0,0c-0.6,0-1,0.5-1,1S13.4,29,14,29z"/>
<path class="st1" d="M13.1,16c4.3,0,7.9-3.6,7.9-8s-3.5-8-7.9-8S5.2,3.6,5.2,8S8.8,16,13.1,16z"/>
<linearGradient id="SVGID_00000072993244489544900700000002181936786228991384_" gradientUnits="userSpaceOnUse" x1="5" y1="76" x2="20.7243" y2="91.7243" gradientTransform="matrix(1 0 0 1 0 -76)">
	<stop  offset="0" style="stop-color:#F1F3F4"/>
	<stop  offset="1" style="stop-color:#DADCE0"/>
</linearGradient>
<path style="fill:url(#SVGID_00000072993244489544900700000002181936786228991384_);" d="M13,16c4.4,0,8-3.6,8-8s-3.6-8-8-8
	S5,3.6,5,8S8.6,16,13,16z"/>
<path class="st1" d="M13,16c0-3.7-2.9-6.7-6.5-6.7S0,12.3,0,16H13z"/>
</svg>
