<?xml version="1.0" encoding="utf-8"?>
<!-- Generator: Adobe Illustrator 27.6.1, SVG Export Plug-In . SVG Version: 6.00 Build 0)  -->
<svg version="1.1" id="Layer_1" xmlns="http://www.w3.org/2000/svg" xmlns:xlink="http://www.w3.org/1999/xlink" x="0px" y="0px"
	 viewBox="0 0 32 32" style="enable-background:new 0 0 32 32;" xml:space="preserve">
<style type="text/css">
	.st0{display:none;fill:#F1F3F4;}
	.st1{display:none;fill:url(#SVGID_1_);}
	.st2{display:none;fill:url(#SVGID_00000129200680957770560630000018337411844567693734_);}
	.st3{fill:url(#SVGID_00000011005521109376558990000012805206361968387475_);}
</style>
<path class="st0" d="M13.7,16.3c4.3,0,7.9-3.6,7.9-8s-3.5-8-7.9-8s-7.9,3.6-7.9,8S9.4,16.3,13.7,16.3z"/>
<linearGradient id="SVGID_1_" gradientUnits="userSpaceOnUse" x1="5.588" y1="-118.288" x2="21.3123" y2="-134.0122" gradientTransform="matrix(1 0 0 -1 0 -118)">
	<stop  offset="0" style="stop-color:#F1F3F4"/>
	<stop  offset="1" style="stop-color:#DADCE0"/>
</linearGradient>
<path class="st1" d="M13.6,16.3c4.4,0,8-3.6,8-8s-3.6-8-8-8s-8,3.6-8,8S9.2,16.3,13.6,16.3z"/>
<path class="st0" d="M13.6,16.3c0-3.7-2.9-6.7-6.5-6.7s-6.5,3-6.5,6.7H13.6z"/>
<linearGradient id="SVGID_00000082340083163478522910000010393070085138412178_" gradientUnits="userSpaceOnUse" x1="2.3" y1="11.2" x2="29.6" y2="11.2" gradientTransform="matrix(1 0 0 -1 0 34)">
	<stop  offset="0" style="stop-color:#FCD35C"/>
	<stop  offset="1" style="stop-color:#FBBC04"/>
</linearGradient>
<path style="display:none;fill:url(#SVGID_00000082340083163478522910000010393070085138412178_);" d="M26,31.3c-0.6,0-1-0.4-1-1
	s0.4-1,1-1c0.9,0,1.6-0.7,1.6-1.6s-0.7-1.6-1.6-1.6h-9.9c0.2,0.5,0.3,1,0.3,1.6c0,2.1-1.5,3.6-3.6,3.6c-0.6,0-1-0.4-1-1s0.4-1,1-1
	c0.9,0,1.6-0.7,1.6-1.6s-0.7-1.6-1.6-1.6h-1.5c-0.6,0-1-0.4-1-1s0.4-1,1-1h1.5c0.1,0,0.1,0,0.2,0h13c2.1,0,3.6,1.5,3.6,3.6
	S28.1,31.3,26,31.3z M22.5,21.5H7.3c-0.6,0-1-0.4-1-1s0.4-1,1-1h15.2c0.9,0,1.6-0.7,1.6-1.6s-0.7-1.6-1.6-1.6c-0.6,0-1-0.4-1-1
	s0.4-1,1-1c2.1,0,3.6,1.5,3.6,3.6S24.6,21.5,22.5,21.5z M3.3,19.5c-0.6,0-1,0.4-1,1s0.4,1,1,1s1-0.4,1-1S3.9,19.5,3.3,19.5z
	 M3.3,24.1c-0.6,0-1,0.4-1,1s0.4,1,1,1s1-0.4,1-1S3.9,24.1,3.3,24.1z M7.3,24.1c-0.6,0-1,0.4-1,1s0.4,1,1,1s1-0.4,1-1
	S7.9,24.1,7.3,24.1z"/>
<image style="display:none;overflow:visible;" width="40" height="40" xlink:href="../../ZMake/colorfulchic/assets/images/weather/23.png"  transform="matrix(0.7482 0 0 0.7482 1.0365 0.5109)">
</image>
<linearGradient id="SVGID_00000049910382858466774180000016507883200508533640_" gradientUnits="userSpaceOnUse" x1="2.5" y1="16" x2="29.5" y2="16">
	<stop  offset="0" style="stop-color:#FCD35C"/>
	<stop  offset="1" style="stop-color:#FBBC04"/>
</linearGradient>
<path style="fill:url(#SVGID_00000049910382858466774180000016507883200508533640_);" d="M29.5,6c0,0.6-0.4,1-1,1c-0.6,0-1-0.4-1-1
	s0.4-1,1-1C29.1,5,29.5,5.4,29.5,6z M6.9,10c-0.6,0-1,0.4-1,1s0.4,1,1,1s1-0.4,1-1S7.4,10,6.9,10z M22.9,15c-0.6,0-1,0.4-1,1
	c0,0.6,0.4,1,1,1c0.6,0,1-0.4,1-1C23.9,15.4,23.4,15,22.9,15z M13.2,20c-0.6,0-1,0.4-1,1s0.4,1,1,1s1-0.4,1-1S13.8,20,13.2,20z
	 M17,26L17,26c0-0.6-0.4-1-1-1h-4c-0.6,0-1,0.4-1,1v0c0,0.6,0.4,1,1,1h4C16.6,27,17,26.6,17,26z M22.2,21L22.2,21c0-0.6-0.4-1-1-1
	h-4c-0.6,0-1,0.4-1,1v0c0,0.6,0.4,1,1,1h4C21.8,22,22.2,21.6,22.2,21z M19.9,16L19.9,16c0-0.6-0.4-1-1-1h-11c-0.6,0-1,0.4-1,1v0
	c0,0.6,0.4,1,1,1h11C19.4,17,19.9,16.6,19.9,16z M25.9,11L25.9,11c0-0.6-0.4-1-1-1h-14c-0.6,0-1,0.4-1,1v0c0,0.6,0.4,1,1,1h14
	C25.5,12,25.9,11.6,25.9,11z M25.5,6L25.5,6c0-0.6-0.4-1-1-1h-21c-0.6,0-1,0.4-1,1v0c0,0.6,0.4,1,1,1h21C25.1,7,25.5,6.6,25.5,6z"/>
</svg>
