<?xml version="1.0" encoding="utf-8"?>
<!-- Generator: Adobe Illustrator 27.6.1, SVG Export Plug-In . SVG Version: 6.00 Build 0)  -->
<svg version="1.1" id="Layer_1" xmlns="http://www.w3.org/2000/svg" xmlns:xlink="http://www.w3.org/1999/xlink" x="0px" y="0px"
	 viewBox="0 0 32 32" style="enable-background:new 0 0 32 32;" xml:space="preserve">
<style type="text/css">
	.st0{fill:#F1F3F4;}
	.st1{fill:url(#SVGID_1_);}
	.st2{fill:url(#SVGID_00000148625596647005649470000008437214951835128249_);}
	.st3{fill:#5E89CC;}
</style>
<path class="st0" d="M20,24c6.6,0,12-5.4,12-12S26.6,0,20,0S8,5.4,8,12S13.4,24,20,24z"/>
<linearGradient id="SVGID_1_" gradientUnits="userSpaceOnUse" x1="8" y1="76" x2="31.5865" y2="99.5865" gradientTransform="matrix(1 0 0 1 0 -76)">
	<stop  offset="0" style="stop-color:#F1F3F4"/>
	<stop  offset="1" style="stop-color:#DADCE0"/>
</linearGradient>
<path class="st1" d="M20,24c6.6,0,12-5.4,12-12S26.6,0,20,0S8,5.4,8,12S13.4,24,20,24z"/>
<linearGradient id="SVGID_00000095313716466255083540000011910205320762168238_" gradientUnits="userSpaceOnUse" x1="20" y1="95" x2="10" y2="95" gradientTransform="matrix(1 0 0 1 0 -76)">
	<stop  offset="0" style="stop-color:#FFFFFF"/>
	<stop  offset="1" style="stop-color:#F1F3F4"/>
</linearGradient>
<path style="fill:url(#SVGID_00000095313716466255083540000011910205320762168238_);" d="M20,24c0-5.5-4.5-10-10-10S0,18.5,0,24H20z
	"/>
<path class="st3" d="M26,9.5h-1v5h1V9.5z M28,9.5h-1v5h1V9.5z M30,9.5h-1v5h1V9.5z"/>
<path class="st3" d="M18,9.5h-1v5h1V9.5z M20,9.5h-1v5h1V9.5z M22,9.5h-1v5h1V9.5z"/>
<path class="st3" d="M26,18.5h-1v5h1V18.5z M28,18.5h-1v5h1V18.5z M30,18.5h-1v5h1V18.5z"/>
<path class="st3" d="M18,18.5h-1v5h1V18.5z M20,18.5h-1v5h1V18.5z M22,18.5h-1v5h1V18.5z"/>
<path class="st3" d="M26,26.4h-1v5h1V26.4z M28,26.4h-1v5h1V26.4z M30,26.4h-1v5h1V26.4z"/>
<path class="st3" d="M18,26.4h-1v5h1V26.4z M20,26.4h-1v5h1V26.4z M22,26.4h-1v5h1V26.4z"/>
</svg>
