<?xml version="1.0" ?>
<svg height="24.0" viewBox="0 0 24.0 24.0" width="24.0" xmlns="http://www.w3.org/2000/svg">
  <path d="M10.329,14.664V13.872C10.329,13.088 10.497,12.416 10.833,11.856C11.169,11.296 11.737,10.664 12.537,9.96C12.969,9.576 13.305,9.224 13.545,8.904C13.785,8.568 13.905,8.176 13.905,7.728C13.905,7.248 13.721,6.832 13.353,6.48C13.001,6.128 12.513,5.952 11.889,5.952C11.201,5.952 10.657,6.152 10.257,6.552C9.873,6.952 9.601,7.408 9.441,7.92L6.681,6.768C6.857,6.16 7.161,5.568 7.593,4.992C8.041,4.416 8.617,3.944 9.321,3.576C10.025,3.192 10.857,3 11.817,3C12.841,3 13.737,3.2 14.505,3.6C15.289,4 15.897,4.544 16.329,5.232C16.777,5.92 17.001,6.696 17.001,7.56C17.001,8.472 16.793,9.232 16.377,9.84C15.977,10.432 15.489,11.008 14.913,11.568C14.369,12.064 13.993,12.504 13.785,12.888C13.593,13.256 13.497,13.72 13.497,14.28V14.664H10.329ZM11.889,20.712C11.313,20.712 10.817,20.512 10.401,20.112C10.001,19.696 9.801,19.2 9.801,18.624C9.801,18.048 10.001,17.56 10.401,17.16C10.817,16.76 11.313,16.56 11.889,16.56C12.465,16.56 12.953,16.76 13.353,17.16C13.753,17.56 13.953,18.048 13.953,18.624C13.953,19.2 13.753,19.696 13.353,20.112C12.953,20.512 12.465,20.712 11.889,20.712Z" fill="#202124"/>
</svg>
