<?xml version="1.0" encoding="utf-8"?>
<!-- Generator: Adobe Illustrator 27.6.1, SVG Export Plug-In . SVG Version: 6.00 Build 0)  -->
<svg version="1.1" id="Layer_1" xmlns="http://www.w3.org/2000/svg" xmlns:xlink="http://www.w3.org/1999/xlink" x="0px" y="0px"
	 viewBox="0 0 32 32" style="enable-background:new 0 0 32 32;" xml:space="preserve">
<style type="text/css">
	.st0{fill:url(#SVGID_1_);}
	.st1{fill:none;stroke:#FBBC04;}
</style>
<linearGradient id="SVGID_1_" gradientUnits="userSpaceOnUse" x1="2" y1="32" x2="30" y2="4" gradientTransform="matrix(1 0 0 -1 0 34)">
	<stop  offset="0" style="stop-color:#FCD35C"/>
	<stop  offset="1" style="stop-color:#FBBC04"/>
</linearGradient>
<path class="st0" d="M16,30c7.7,0,14-6.3,14-14S23.7,2,16,2S2,8.3,2,16S8.3,30,16,30z"/>
<path class="st1" d="M17.1,2.1l1.6-0.8c1.2-0.6,2.7-0.1,3.4,1.1l0.8,1.6c0.4,0.7,1,1.2,1.8,1.4l1.7,0.3c1.4,0.2,2.3,1.6,2.1,3
	l-0.2,1.8c-0.1,0.8,0.1,1.6,0.7,2.2l1.2,1.3c1,1,1,2.7,0,3.7L29,19.2c-0.5,0.6-0.8,1.4-0.7,2.2l0.2,1.8c0.2,1.4-0.7,2.8-2.1,3
	l-1.7,0.3c-0.8,0.1-1.4,0.7-1.8,1.4l-0.8,1.6c-0.6,1.3-2.1,1.8-3.4,1.1l-1.6-0.8c-0.7-0.4-1.5-0.4-2.2,0l-1.6,0.8
	c-1.2,0.6-2.7,0.1-3.4-1.1l-0.8-1.6c-0.4-0.7-1-1.2-1.8-1.4l-1.7-0.3c-1.4-0.2-2.3-1.6-2.1-3l0.2-1.8c0.1-0.8-0.1-1.6-0.7-2.2
	l-1.2-1.3c-1-1-1-2.7,0-3.7L3,12.8c0.5-0.6,0.8-1.4,0.7-2.2L3.4,8.8C3.2,7.3,4.1,6,5.5,5.8l1.7-0.3C8,5.3,8.7,4.8,9.1,4.1l0.8-1.6
	c0.6-1.3,2.1-1.8,3.4-1.1l1.6,0.8C15.6,2.4,16.4,2.4,17.1,2.1z"/>
</svg>
