<?xml version="1.0" ?>
<svg height="32.0" viewBox="0 0 32.0 32.0" width="32.0" xmlns="http://www.w3.org/2000/svg">
     <linearGradient id="grad0" gradientUnits="userSpaceOnUse" x1="8" y1="0" x2="31.5865" y2="23.5865">
	 <stop  offset="0" style="stop-color:#f1f3f4"/>
	 <stop  offset="1" style="stop-color:#dadce0"/>
  </linearGradient>
       <linearGradient id="grad1" gradientUnits="userSpaceOnUse" x1="20" y1="24" x2="10" y2="24">
	 <stop  offset="0" style="stop-color:#ffffff"/>
	 <stop  offset="1" style="stop-color:#f1f3f4"/>
  </linearGradient>
  <g>
    <path d="M20,24C26.6274,24 32,18.6274 32,12C32,5.3726 26.6274,0 20,0C13.3726,0 8,5.3726 8,12C8,18.6274 13.3726,24 20,24Z" fill="#f1f3f4"/>
    <path d="M20,24C26.6274,24 32,18.6274 32,12C32,5.3726 26.6274,0 20,0C13.3726,0 8,5.3726 8,12C8,18.6274 13.3726,24 20,24Z" style="fill:url(#grad0);"/>
    <path d="M20,24C20,18.4772 15.5228,14 10,14C4.4771,14 0,18.4772 0,24C0.0148,23.9774 20.0052,23.9846 20,24Z" style="fill:url(#grad1);"/>
    <path d="M25.7326,27.7322L27.5004,25.9645L29.2681,27.7322C30.2445,28.7085 30.2445,30.2915 29.2681,31.2678C28.2918,32.2441 26.7089,32.2441 25.7326,31.2678C24.7563,30.2915 24.7563,28.7085 25.7326,27.7322Z" fill="#5e89cc"/>
    <path d="M25.7678,10.7679L27.5355,9.0001L29.3033,10.7679C30.2796,11.7442 30.2796,13.3271 29.3033,14.3034C28.327,15.2797 26.7441,15.2797 25.7678,14.3034C24.7915,13.3271 24.7915,11.7442 25.7678,10.7679Z" fill="#5e89cc"/>
    <path d="M17.7678,19.7679L19.5355,18.0001L21.3033,19.7679C22.2796,20.7442 22.2796,22.3271 21.3033,23.3034C20.327,24.2797 18.7441,24.2797 17.7678,23.3034C16.7915,22.3271 16.7915,20.7442 17.7678,19.7679Z" fill="#5e89cc"/>
  </g>
</svg>
