<?xml version="1.0" ?>
<svg height="32.0" viewBox="0 0 32.0 32.0" width="32.0" xmlns="http://www.w3.org/2000/svg">
     <linearGradient id="grad0" gradientUnits="userSpaceOnUse" x1="8" y1="0" x2="31.5865" y2="23.5865">
	 <stop  offset="0" style="stop-color:#f1f3f4"/>
	 <stop  offset="1" style="stop-color:#dadce0"/>
  </linearGradient>
       <linearGradient id="grad1" gradientUnits="userSpaceOnUse" x1="20" y1="24" x2="10" y2="24">
	 <stop  offset="0" style="stop-color:#ffffff"/>
	 <stop  offset="1" style="stop-color:#f1f3f4"/>
  </linearGradient>
  <g>
    <path d="M20,24C26.6274,24 32,18.6274 32,12C32,5.3726 26.6274,0 20,0C13.3726,0 8,5.3726 8,12C8,18.6274 13.3726,24 20,24Z" fill="#f1f3f4"/>
    <path d="M20,24C26.6274,24 32,18.6274 32,12C32,5.3726 26.6274,0 20,0C13.3726,0 8,5.3726 8,12C8,18.6274 13.3726,24 20,24Z" style="fill:url(#grad0);"/>
    <path d="M20,24C20,18.4772 15.5228,14 10,14C4.4771,14 0,18.4772 0,24C0.0148,23.9774 20.0052,23.9846 20,24Z" style="fill:url(#grad1);"/>
    <path d="M18.3434,18.3431L24.0002,12.6863L29.6571,18.3431C32.7813,21.4673 32.7813,26.5327 29.6571,29.6569C26.5329,32.781 21.4676,32.781 18.3434,29.6569C15.2192,26.5327 15.2192,21.4673 18.3434,18.3431Z" fill="#5e89cc"/>
    <path d="M18.3431,18.3431L24,12.6863L29.6568,18.3431C29.7658,18.4521 29.871,18.5634 29.9724,18.677C27.8187,21.8871 24.1561,24 20,24C19.9081,24 19.8164,23.999 19.725,23.9969C19.1629,23.9938 17.7834,23.9912 16,23.9892C16.0027,21.9454 16.7838,19.9025 18.3431,18.3431Z" fill="#75acff"/>
  </g>
</svg>
