<?xml version="1.0" encoding="utf-8"?>
<!-- Generator: Adobe Illustrator 27.6.1, SVG Export Plug-In . SVG Version: 6.00 Build 0)  -->
<svg version="1.1" id="Layer_1" xmlns="http://www.w3.org/2000/svg" xmlns:xlink="http://www.w3.org/1999/xlink" x="0px" y="0px"
	 viewBox="0 0 32 32" style="enable-background:new 0 0 32 32;" xml:space="preserve">
<style type="text/css">
	.st0{fill:#F1F3F4;}
	.st1{fill:url(#SVGID_1_);}
	.st2{fill:#75ACFF;}
	.st3{fill:#5E89CC;}
</style>
<path class="st0" d="M32,12c0,3-1.1,5.8-3,7.9c-1.1,1.3-2.5,2.3-4.1,3c-0.7,0.3-1.4,0.6-2.2,0.8C21.9,23.9,21,24,20,24
	c-0.8,0-1.7-0.1-2.5-0.2c-4.7-1-8.5-4.8-9.3-9.6C8.1,13.5,8,12.7,8,12C8,5.4,13.4,0,20,0S32,5.4,32,12z"/>
<linearGradient id="SVGID_1_" gradientUnits="userSpaceOnUse" x1="8.0019" y1="24.0003" x2="31.5875" y2="0.4147">
	<stop  offset="0" style="stop-color:#F1F3F4"/>
	<stop  offset="1" style="stop-color:#DADCE0"/>
</linearGradient>
<path class="st1" d="M32,12c0,3-1.1,5.8-3,7.9c-1.1,1.3-2.5,2.3-4.1,3c-0.7,0.3-1.4,0.6-2.2,0.8C21.9,23.9,21,24,20,24
	c-0.8,0-1.7-0.1-2.5-0.2c-4.7-1-8.5-4.8-9.3-9.6C8.1,13.5,8,12.7,8,12C8,5.4,13.4,0,20,0S32,5.4,32,12z"/>
<path class="st0" d="M20,24H0c0-4.9,3.5-9,8.2-9.8C8.8,14.1,9.4,14,10,14c4,0,7.5,2.4,9.1,5.9c0.2,0.3,0.3,0.7,0.4,1
	c0.3,0.9,0.5,1.8,0.5,2.8C20,23.8,20,23.9,20,24z"/>
<path class="st2" d="M28.5,19.9v-2.1h-1v2.5l-1.9,1.9c-0.3-0.2-0.6-0.3-0.9-0.4v-2.6l1.8-1.8l-0.7-0.7l-1.5,1.5l-1.5-1.5L22,17.3
	l1.8,1.8v2.6c-0.3,0.1-0.6,0.2-0.9,0.4l-1.9-1.9v-2.4h-1v2.1h-2.1v1h2.4l1.9,1.9c-0.2,0.3-0.3,0.6-0.4,0.9h-2.8L17.2,22l-0.7,0.7
	l1,1l0.2,0.2H20c1,0,1.9-0.1,2.8-0.3c0.1-0.2,0.2-0.3,0.3-0.5c0,0,0.1-0.1,0.1-0.1c0.3-0.2,0.6-0.4,1-0.4c0.3,0,0.5,0.1,0.8,0.2
	c1.6-0.7,2.9-1.7,4.1-3H28.5z"/>
<path class="st3" d="M30.3,24.3l1.5,1.5l-0.7,0.7l-1.9-1.8h-2.6c-0.1,0.3-0.2,0.6-0.4,0.9l2,2h2.4v1h-2.2v2.1h-1v-2.5l-1.9-1.9
	c-0.3,0.2-0.6,0.3-0.9,0.4v2.7l1.8,1.8l-0.7,0.7l-1.5-1.5l-1.5,1.5L22,31.2l1.8-1.8v-2.7c-0.3-0.1-0.6-0.2-0.8-0.3l-2.1,2.1v2.3h-1
	v-2.1h-2.1v-1h2.5l2-2c-0.2-0.3-0.3-0.6-0.4-0.9h-2.6l-1.9,1.8l-0.7-0.7l1.5-1.5L17.8,24H20c1,0,1.9-0.1,2.8-0.3
	c-0.1,0.2-0.1,0.4-0.1,0.5c0,0.4,0.1,0.8,0.4,1c0,0,0.1,0.1,0.1,0.1c0.3,0.2,0.6,0.4,1,0.4c0.3,0,0.6-0.1,0.9-0.3
	c0.1-0.1,0.2-0.2,0.3-0.3c0.2-0.2,0.3-0.6,0.3-0.9c0-0.4-0.2-0.7-0.4-1c0,0-0.1-0.1-0.1-0.1C25.1,23,25,23,25,22.9
	c1.6-0.7,2.9-1.7,4.1-3h1.6v1h-2.3l-2,2c0.2,0.2,0.3,0.5,0.3,0.8h2.8l1.7-1.7l0.7,0.7L30.3,24.3z"/>
</svg>
